<svg width="40" height="40" viewBox="0 0 40 40" fill="none" xmlns="http://www.w3.org/2000/svg">
  <path d="M20 5C14.5 5 10 9.5 10 15C10 20.5 14.5 25 20 25C25.5 25 30 20.5 30 15C30 9.5 25.5 5 20 5ZM20 20C17.25 20 15 17.75 15 15C15 12.25 17.25 10 20 10C22.75 10 25 12.25 25 15C25 17.75 22.75 20 20 20Z" fill="#2D6A4F"/>
  <path d="M20 0C9 0 0 9 0 20C0 31 9 40 20 40C31 40 40 31 40 20C40 9 31 0 20 0ZM20 35C11.75 35 5 28.25 5 20C5 11.75 11.75 5 20 5C28.25 5 35 11.75 35 20C35 28.25 28.25 35 20 35Z" fill="#52B788"/>
  <path d="M30 32.5C30 31.12 28.88 30 27.5 30H12.5C11.12 30 10 31.12 10 32.5C10 33.88 11.12 35 12.5 35H27.5C28.88 35 30 33.88 30 32.5Z" fill="#2D6A4F"/>
</svg>